<?xml version="1.0" encoding="UTF-8" standalone="no"?>
<svg
   xmlns:dc="http://purl.org/dc/elements/1.1/"
   xmlns:cc="http://creativecommons.org/ns#"
   xmlns:rdf="http://www.w3.org/1999/02/22-rdf-syntax-ns#"
   xmlns:svg="http://www.w3.org/2000/svg"
   xmlns="http://www.w3.org/2000/svg"
   xmlns:sodipodi="http://sodipodi.sourceforge.net/DTD/sodipodi-0.dtd"
   xmlns:inkscape="http://www.inkscape.org/namespaces/inkscape"
   width="210mm"
   height="297mm"
   viewBox="0 0 210 297"
   version="1.1"
   id="svg756"
   sodipodi:docname="logo.svg"
   inkscape:version="1.0.2 (e86c8708, 2021-01-15)">
  <sodipodi:namedview
     pagecolor="#ffffff"
     bordercolor="#666666"
     borderopacity="1"
     objecttolerance="10"
     gridtolerance="10"
     guidetolerance="10"
     inkscape:pageopacity="0"
     inkscape:pageshadow="2"
     inkscape:window-width="1402"
     inkscape:window-height="1226"
     id="namedview21"
     showgrid="false"
     inkscape:zoom="3.6126067"
     inkscape:cx="343.43267"
     inkscape:cy="441.50534"
     inkscape:window-x="1188"
     inkscape:window-y="182"
     inkscape:window-maximized="0"
     inkscape:current-layer="svg756" />
  <defs
     id="defs750" />
  <metadata
     id="metadata753">
    <rdf:RDF>
      <cc:Work
         rdf:about="">
        <dc:format>image/svg+xml</dc:format>
        <dc:type
           rdf:resource="http://purl.org/dc/dcmitype/StillImage" />
        <dc:title />
      </cc:Work>
    </rdf:RDF>
  </metadata>
  <path
     style="fill:#5fbcd3;stroke:none;stroke-width:0.150485px;stroke-linecap:butt;stroke-linejoin:miter;stroke-opacity:1"
     d="m 102.53539,103.10225 h 9.56134 c 1.64406,0.01 1.37947,0.2742 1.37947,-1.3133 0,-0.6583 -0.51513,-1.31329 -1.37947,-1.31329 h -9.56134 c -0.86434,0 -1.38165,0.65499 -1.37946,1.31329 0.002,0.65498 0.51947,1.3133 1.37946,1.3133 z"
     id="path29078" />
  <path
     style="fill:#5fbcd3;stroke:none;stroke-width:0.150485px;stroke-linecap:butt;stroke-linejoin:miter;stroke-opacity:1"
     d="m 102.53539,106.80644 h 9.56134 c 0.86,0 1.37947,-0.65831 1.37947,-1.3133 0,-1.58752 0.26459,-1.32294 -1.37947,-1.31329 h -9.56134 c -0.86434,0 -1.38165,0.65499 -1.37946,1.31329 0.002,0.65498 0.51947,1.3133 1.37946,1.3133 z"
     id="path29080" />
  <path
     style="fill:#5fbcd3;stroke:none;stroke-width:0.150485px;stroke-linecap:butt;stroke-linejoin:miter;stroke-opacity:1"
     d="m 102.53539,110.51063 h 5.32801 c 0.86,0 1.3773,-0.65831 1.37947,-1.3133 0.002,-0.6583 -0.51513,-1.31329 -1.37947,-1.31329 h -5.32801 c -0.86434,0 -1.38165,0.65499 -1.37946,1.31329 0.002,0.65498 0.51947,1.3133 1.37946,1.3133 z"
     id="path29082" />
  <text
     xml:space="preserve"
     style="font-size:5.64444px;line-height:1.25;font-family:sans-serif;letter-spacing:0.264583px;word-spacing:0px;stroke-width:0.264583"
     x="150.13618"
     y="110.79256"
     id="text29086"><tspan
       id="tspan29084"
       style="text-align:end;letter-spacing:0.264583px;text-anchor:end;fill:#0088aa;stroke-width:0.264583"
       x="100.60405"
       y="110.79256"
       dy="0"
       rotate="0 0 0 0 0 0 0 0 0 0">epiallele</tspan></text>
  <path
     style="fill:#5fbcd3;stroke:none;stroke-width:0.150485px;stroke-linecap:butt;stroke-linejoin:miter;stroke-opacity:1"
     d="m 102.53539,114.21481 h 2.68217 c 0.86,0 1.3773,-0.65831 1.37947,-1.3133 0.002,-0.6583 -0.51513,-1.31329 -1.37947,-1.31329 h -2.68217 c -0.86434,0 -1.38165,0.65499 -1.37946,1.31329 0.002,0.65498 0.51947,1.3133 1.37946,1.3133 z"
     id="path29088" />
  <path
     style="fill:#5fbcd3;stroke:none;stroke-width:0.150485px;stroke-linecap:butt;stroke-linejoin:miter;stroke-opacity:1"
     d="m 109.41456,114.21481 h 2.68217 c 0.86,0 1.3773,-0.65831 1.37947,-1.3133 0.002,-0.6583 -0.51513,-1.31329 -1.37947,-1.31329 h -2.68217 c -0.86434,0 -1.38165,0.65499 -1.37946,1.31329 0.002,0.65498 0.51947,1.3133 1.37946,1.3133 z"
     id="path29090" />
</svg>
