<?xml version="1.0" encoding="UTF-8" standalone="no"?>
<svg
   width="56.936001mm"
   height="21mm"
   viewBox="0 0 56.936 21"
   version="1.1"
   id="svg756"
   sodipodi:docname="epialleleR_logo.svg"
   inkscape:version="1.3 (1:1.3+202307231459+0e150ed6c4)"
   xmlns:inkscape="http://www.inkscape.org/namespaces/inkscape"
   xmlns:sodipodi="http://sodipodi.sourceforge.net/DTD/sodipodi-0.dtd"
   xmlns="http://www.w3.org/2000/svg"
   xmlns:svg="http://www.w3.org/2000/svg"
   xmlns:rdf="http://www.w3.org/1999/02/22-rdf-syntax-ns#"
   xmlns:cc="http://creativecommons.org/ns#"
   xmlns:dc="http://purl.org/dc/elements/1.1/">
  <sodipodi:namedview
     pagecolor="#ffffff"
     bordercolor="#666666"
     borderopacity="1"
     objecttolerance="10"
     gridtolerance="10"
     guidetolerance="10"
     inkscape:pageopacity="0"
     inkscape:pageshadow="2"
     inkscape:window-width="1864"
     inkscape:window-height="1136"
     id="namedview21"
     showgrid="false"
     inkscape:zoom="1.514647"
     inkscape:cx="188.82287"
     inkscape:cy="26.078684"
     inkscape:window-x="56"
     inkscape:window-y="27"
     inkscape:window-maximized="1"
     inkscape:current-layer="svg756"
     inkscape:document-rotation="0"
     inkscape:showpageshadow="2"
     inkscape:pagecheckerboard="0"
     inkscape:deskcolor="#d1d1d1"
     inkscape:document-units="mm" />
  <defs
     id="defs750" />
  <metadata
     id="metadata753">
    <rdf:RDF>
      <cc:Work
         rdf:about="">
        <dc:format>image/svg+xml</dc:format>
        <dc:type
           rdf:resource="http://purl.org/dc/dcmitype/StillImage" />
      </cc:Work>
    </rdf:RDF>
  </metadata>
  <path
     style="fill:#5fbcd3;stroke:none;stroke-width:0.21906px;stroke-linecap:butt;stroke-linejoin:miter;stroke-opacity:1"
     d="m 40.515647,4.3526783 h 13.918387 c 2.393248,0.014557 2.008086,0.3991514 2.008086,-1.9117631 0,-0.9582834 -0.749872,-1.91174853 -2.008086,-1.91174853 H 40.515647 c -1.258215,0 -2.01126,0.95346513 -2.008071,1.91174853 0.0029,0.9534506 0.756189,1.9117631 2.008071,1.9117631 z"
     id="path29078" />
  <path
     style="fill:#5fbcd3;stroke:none;stroke-width:0.21906px;stroke-linecap:butt;stroke-linejoin:miter;stroke-opacity:1"
     d="m 40.515647,9.744846 h 13.918387 c 1.251896,0 2.008086,-0.9582977 2.008086,-1.911763 0,-2.3109436 0.385162,-1.9257961 -2.008086,-1.9117486 H 40.515647 c -1.258215,0 -2.01126,0.953465 -2.008071,1.9117486 0.0029,0.9534509 0.756189,1.911763 2.008071,1.911763 z"
     id="path29080" />
  <path
     style="fill:#5fbcd3;stroke:none;stroke-width:0.21906px;stroke-linecap:butt;stroke-linejoin:miter;stroke-opacity:1"
     d="M 40.515647,15.137014 H 48.2716 c 1.251897,0 2.004927,-0.958298 2.008086,-1.911763 0.0029,-0.958284 -0.749872,-1.911749 -2.008086,-1.911749 h -7.755953 c -1.258215,0 -2.01126,0.953465 -2.008071,1.911749 0.0029,0.95345 0.756189,1.911763 2.008071,1.911763 z"
     id="path29082" />
  <text
     xml:space="preserve"
     style="font-size:8.21654px;line-height:1.25;font-family:sans-serif;letter-spacing:0.385152px;word-spacing:0px;stroke-width:0.385152"
     x="109.80785"
     y="15.547413"
     id="text29086"><tspan
       id="tspan29084"
       style="text-align:end;letter-spacing:0.385152px;text-anchor:end;fill:#0088aa;stroke-width:0.385152"
       x="37.704212"
       y="15.547413"
       dy="0"
       rotate="0 0 0 0 0 0 0 0 0 0">epiallele</tspan></text>
  <path
     style="fill:#5fbcd3;stroke:none;stroke-width:0.21906px;stroke-linecap:butt;stroke-linejoin:miter;stroke-opacity:1"
     d="m 40.515647,20.529167 h 3.904419 c 1.251898,0 2.004928,-0.958298 2.008087,-1.911763 0.0029,-0.958284 -0.749872,-1.911749 -2.008087,-1.911749 h -3.904419 c -1.258215,0 -2.01126,0.953465 -2.008071,1.911749 0.0029,0.953451 0.756189,1.911763 2.008071,1.911763 z"
     id="path29088" />
  <path
     style="fill:#5fbcd3;stroke:none;stroke-width:0.21906px;stroke-linecap:butt;stroke-linejoin:miter;stroke-opacity:1"
     d="m 50.529614,20.529167 h 3.90442 c 1.251896,0 2.004927,-0.958298 2.008086,-1.911763 0.0029,-0.958284 -0.749872,-1.911749 -2.008086,-1.911749 h -3.90442 c -1.258214,0 -2.011259,0.953465 -2.008071,1.911749 0.0029,0.953451 0.756189,1.911763 2.008071,1.911763 z"
     id="path29090" />
</svg>
