<?xml version="1.0" encoding="UTF-8" standalone="no"?>
<svg
   width="74.998001mm"
   height="27.458mm"
   viewBox="0 0 74.998 27.458"
   version="1.1"
   id="svg756"
   sodipodi:docname="epialleleR_logo.svg"
   inkscape:version="1.3 (1:1.3+202307231459+0e150ed6c4)"
   xmlns:inkscape="http://www.inkscape.org/namespaces/inkscape"
   xmlns:sodipodi="http://sodipodi.sourceforge.net/DTD/sodipodi-0.dtd"
   xmlns="http://www.w3.org/2000/svg"
   xmlns:svg="http://www.w3.org/2000/svg"
   xmlns:rdf="http://www.w3.org/1999/02/22-rdf-syntax-ns#"
   xmlns:cc="http://creativecommons.org/ns#"
   xmlns:dc="http://purl.org/dc/elements/1.1/">
  <sodipodi:namedview
     pagecolor="#ffffff"
     bordercolor="#666666"
     borderopacity="1"
     objecttolerance="10"
     gridtolerance="10"
     guidetolerance="10"
     inkscape:pageopacity="0"
     inkscape:pageshadow="2"
     inkscape:window-width="1864"
     inkscape:window-height="1136"
     id="namedview21"
     showgrid="false"
     inkscape:zoom="1.514647"
     inkscape:cx="190.80353"
     inkscape:cy="28.059343"
     inkscape:window-x="56"
     inkscape:window-y="27"
     inkscape:window-maximized="1"
     inkscape:current-layer="svg756"
     inkscape:document-rotation="0"
     inkscape:showpageshadow="2"
     inkscape:pagecheckerboard="0"
     inkscape:deskcolor="#d1d1d1"
     inkscape:document-units="mm" />
  <defs
     id="defs750" />
  <metadata
     id="metadata753">
    <rdf:RDF>
      <cc:Work
         rdf:about="">
        <dc:format>image/svg+xml</dc:format>
        <dc:type
           rdf:resource="http://purl.org/dc/dcmitype/StillImage" />
      </cc:Work>
    </rdf:RDF>
  </metadata>
  <path
     style="fill:#5fbcd3;stroke:none;stroke-width:0.289798px;stroke-linecap:butt;stroke-linejoin:miter;stroke-opacity:1"
     d="m 53.427957,5.5873538 h 18.412865 c 3.166068,0.019258 2.656531,0.5280439 2.656531,-2.5291032 0,-1.2677291 -0.992018,-2.52908393 -2.656531,-2.52908393 H 53.427957 c -1.664513,0 -2.660729,1.26135483 -2.656511,2.52908393 0.0039,1.2613356 1.000375,2.5291032 2.656511,2.5291032 z"
     id="path29078" />
  <path
     style="fill:#5fbcd3;stroke:none;stroke-width:0.289798px;stroke-linecap:butt;stroke-linejoin:miter;stroke-opacity:1"
     d="m 53.427957,12.720742 h 18.412865 c 1.656155,0 2.656531,-1.267748 2.656531,-2.529103 0,-3.0571858 0.509537,-2.5476677 -2.656531,-2.5290841 H 53.427957 c -1.664513,0 -2.660729,1.2613548 -2.656511,2.5290841 0.0039,1.261336 1.000375,2.529103 2.656511,2.529103 z"
     id="path29080" />
  <path
     style="fill:#5fbcd3;stroke:none;stroke-width:0.289798px;stroke-linecap:butt;stroke-linejoin:miter;stroke-opacity:1"
     d="m 53.427957,19.85413 h 10.260479 c 1.656156,0 2.652352,-1.267748 2.656531,-2.529103 0.0039,-1.267729 -0.992018,-2.529084 -2.656531,-2.529084 H 53.427957 c -1.664513,0 -2.660729,1.261355 -2.656511,2.529084 0.0039,1.261336 1.000375,2.529103 2.656511,2.529103 z"
     id="path29082" />
  <text
     xml:space="preserve"
     style="font-size:10.8698px;line-height:1.25;font-family:sans-serif;letter-spacing:0.509524px;word-spacing:0px;stroke-width:0.509524"
     x="145.09575"
     y="20.397055"
     id="text29086"><tspan
       id="tspan29084"
       style="text-align:end;letter-spacing:0.509524px;text-anchor:end;fill:#0088aa;stroke-width:0.509524"
       x="49.70866"
       y="20.397055"
       dy="0"
       rotate="0 0 0 0 0 0 0 0 0 0">epiallele</tspan></text>
  <path
     style="fill:#5fbcd3;stroke:none;stroke-width:0.289798px;stroke-linecap:butt;stroke-linejoin:miter;stroke-opacity:1"
     d="m 53.427957,26.987499 h 5.165221 c 1.656156,0 2.652352,-1.267748 2.656531,-2.529103 0.0039,-1.267729 -0.992018,-2.529084 -2.656531,-2.529084 h -5.165221 c -1.664513,0 -2.660729,1.261355 -2.656511,2.529084 0.0039,1.261336 1.000375,2.529103 2.656511,2.529103 z"
     id="path29088" />
  <path
     style="fill:#5fbcd3;stroke:none;stroke-width:0.289798px;stroke-linecap:butt;stroke-linejoin:miter;stroke-opacity:1"
     d="m 66.675601,26.987499 h 5.165221 c 1.656155,0 2.652352,-1.267748 2.656531,-2.529103 0.0039,-1.267729 -0.992018,-2.529084 -2.656531,-2.529084 h -5.165221 c -1.664513,0 -2.660729,1.261355 -2.656511,2.529084 0.0039,1.261336 1.000375,2.529103 2.656511,2.529103 z"
     id="path29090" />
</svg>
