<?xml version="1.0" encoding="UTF-8" standalone="no"?>
<svg
   xmlns:dc="http://purl.org/dc/elements/1.1/"
   xmlns:cc="http://creativecommons.org/ns#"
   xmlns:rdf="http://www.w3.org/1999/02/22-rdf-syntax-ns#"
   xmlns:svg="http://www.w3.org/2000/svg"
   xmlns="http://www.w3.org/2000/svg"
   xmlns:sodipodi="http://sodipodi.sourceforge.net/DTD/sodipodi-0.dtd"
   xmlns:inkscape="http://www.inkscape.org/namespaces/inkscape"
   width="73.043045mm"
   height="26.458332mm"
   viewBox="-2 0 75.043044 26.458332"
   version="1.1"
   id="svg756"
   sodipodi:docname="logo.svg"
   inkscape:version="1.0.2 (e86c8708, 2021-01-15)">
  <sodipodi:namedview
     pagecolor="#ffffff"
     bordercolor="#666666"
     borderopacity="1"
     objecttolerance="10"
     gridtolerance="10"
     guidetolerance="10"
     inkscape:pageopacity="0"
     inkscape:pageshadow="2"
     inkscape:window-width="1402"
     inkscape:window-height="1226"
     id="namedview21"
     showgrid="false"
     inkscape:zoom="1.514647"
     inkscape:cx="187.67324"
     inkscape:cy="28.002964"
     inkscape:window-x="977"
     inkscape:window-y="126"
     inkscape:window-maximized="0"
     inkscape:current-layer="svg756"
     inkscape:document-rotation="0" />
  <defs
     id="defs750" />
  <metadata
     id="metadata753">
    <rdf:RDF>
      <cc:Work
         rdf:about="">
        <dc:format>image/svg+xml</dc:format>
        <dc:type
           rdf:resource="http://purl.org/dc/dcmitype/StillImage" />
        <dc:title />
      </cc:Work>
    </rdf:RDF>
  </metadata>
  <path
     style="fill:#5fbcd3;stroke:none;stroke-width:0.289798px;stroke-linecap:butt;stroke-linejoin:miter;stroke-opacity:1"
     d="M 51.943437,5.0581871 H 70.356302 C 73.52237,5.0774447 73.012833,5.586231 73.012833,2.5290839 73.012833,1.2613548 72.020815,0 70.356302,0 H 51.943437 c -1.664513,0 -2.660729,1.2613548 -2.656511,2.5290839 0.0039,1.2613356 1.000375,2.5291032 2.656511,2.5291032 z"
     id="path29078" />
  <path
     style="fill:#5fbcd3;stroke:none;stroke-width:0.289798px;stroke-linecap:butt;stroke-linejoin:miter;stroke-opacity:1"
     d="m 51.943437,12.191575 h 18.412865 c 1.656155,0 2.656531,-1.267748 2.656531,-2.5291029 0,-3.0571856 0.509537,-2.5476675 -2.656531,-2.5290839 H 51.943437 c -1.664513,0 -2.660729,1.2613548 -2.656511,2.5290839 0.0039,1.2613359 1.000375,2.5291029 2.656511,2.5291029 z"
     id="path29080" />
  <path
     style="fill:#5fbcd3;stroke:none;stroke-width:0.289798px;stroke-linecap:butt;stroke-linejoin:miter;stroke-opacity:1"
     d="m 51.943437,19.324963 h 10.260479 c 1.656156,0 2.652352,-1.267748 2.656531,-2.529103 0.0039,-1.267729 -0.992018,-2.529084 -2.656531,-2.529084 H 51.943437 c -1.664513,0 -2.660729,1.261355 -2.656511,2.529084 0.0039,1.261336 1.000375,2.529103 2.656511,2.529103 z"
     id="path29082" />
  <text
     xml:space="preserve"
     style="font-size:10.8698px;line-height:1.25;font-family:sans-serif;letter-spacing:0.509524px;word-spacing:0px;stroke-width:0.509524"
     x="143.61124"
     y="19.867887"
     id="text29086"><tspan
       id="tspan29084"
       style="text-align:end;letter-spacing:0.509524px;text-anchor:end;fill:#0088aa;stroke-width:0.509524"
       x="48.224136"
       y="19.867887"
       dy="0"
       rotate="0 0 0 0 0 0 0 0 0 0">epiallele</tspan></text>
  <path
     style="fill:#5fbcd3;stroke:none;stroke-width:0.289798px;stroke-linecap:butt;stroke-linejoin:miter;stroke-opacity:1"
     d="m 51.943437,26.458332 h 5.165221 c 1.656156,0 2.652352,-1.267748 2.656531,-2.529103 0.0039,-1.267729 -0.992018,-2.529084 -2.656531,-2.529084 h -5.165221 c -1.664513,0 -2.660729,1.261355 -2.656511,2.529084 0.0039,1.261336 1.000375,2.529103 2.656511,2.529103 z"
     id="path29088" />
  <path
     style="fill:#5fbcd3;stroke:none;stroke-width:0.289798px;stroke-linecap:butt;stroke-linejoin:miter;stroke-opacity:1"
     d="m 65.191081,26.458332 h 5.165221 c 1.656155,0 2.652352,-1.267748 2.656531,-2.529103 0.0039,-1.267729 -0.992018,-2.529084 -2.656531,-2.529084 h -5.165221 c -1.664513,0 -2.660729,1.261355 -2.656511,2.529084 0.0039,1.261336 1.000375,2.529103 2.656511,2.529103 z"
     id="path29090" />
</svg>
